HIERARCHY
ROOT Scene_Root
{
	OFFSET 0 0 0
	CHANNELS 9 Xposition Yposition Zposition Zrotation Xrotation Yrotation Xscale Yscale Zscale
	JOINT Main__Hips_
	{
		OFFSET -0.657099 0.217995 0.617325
		CHANNELS 9 Xposition Yposition Zposition Zrotation Xrotation Yrotation Xscale Yscale Zscale
		JOINT LeftUpperLeg
		{
			OFFSET 0.05 0.1 0
			CHANNELS 9 Xposition Yposition Zposition Zrotation Xrotation Yrotation Xscale Yscale Zscale
			JOINT LeftLowerLeg
			{
				OFFSET 0.399104 -0.131428 0.028
				CHANNELS 9 Xposition Yposition Zposition Zrotation Xrotation Yrotation Xscale Yscale Zscale
				JOINT LeftFoot
				{
					OFFSET 0.285784 -0.0463966 -0.345872
					CHANNELS 9 Xposition Yposition Zposition Zrotation Xrotation Yrotation Xscale Yscale Zscale
					JOINT LeftToes
					{
						OFFSET 0.105709 -0.0588492 -0.0498728
						CHANNELS 9 Xposition Yposition Zposition Zrotation Xrotation Yrotation Xscale Yscale Zscale
						End Site
						{
							OFFSET 0 0 0
						}
					}
				}
			}
		}
		JOINT RightUpperLeg
		{
			OFFSET 0.05 -0.1 0
			CHANNELS 9 Xposition Yposition Zposition Zrotation Xrotation Yrotation Xscale Yscale Zscale
			JOINT RightLowerLeg
			{
				OFFSET 0.419986 -0.0230001 0.028
				CHANNELS 9 Xposition Yposition Zposition Zrotation Xrotation Yrotation Xscale Yscale Zscale
				JOINT RightFoot
				{
					OFFSET -0.120948 -0.0249048 -0.433825
					CHANNELS 9 Xposition Yposition Zposition Zrotation Xrotation Yrotation Xscale Yscale Zscale
					JOINT RightToes
					{
						OFFSET 0.0866297 -0.00854851 -0.0977099
						CHANNELS 9 Xposition Yposition Zposition Zrotation Xrotation Yrotation Xscale Yscale Zscale
						End Site
						{
							OFFSET 0 0 0
						}
					}
				}
			}
		}
		JOINT LowerBack
		{
			OFFSET -0.09 1.49012e-008 0
			CHANNELS 9 Xposition Yposition Zposition Zrotation Xrotation Yrotation Xscale Yscale Zscale
			JOINT Back
			{
				OFFSET -0.14 2.98023e-008 0
				CHANNELS 9 Xposition Yposition Zposition Zrotation Xrotation Yrotation Xscale Yscale Zscale
				JOINT Chest
				{
					OFFSET -0.179315 0.0156881 0
					CHANNELS 9 Xposition Yposition Zposition Zrotation Xrotation Yrotation Xscale Yscale Zscale
					JOINT Neck
					{
						OFFSET -0.209201 0.0183028 -0.027
						CHANNELS 9 Xposition Yposition Zposition Zrotation Xrotation Yrotation Xscale Yscale Zscale
						End Site
						{
							OFFSET 0 0 0
						}
					}
					JOINT LeftUpperArm
					{
						OFFSET -0.092586 0.203845 -0.045
						CHANNELS 9 Xposition Yposition Zposition Zrotation Xrotation Yrotation Xscale Yscale Zscale
						JOINT LeftLowerArm
						{
							OFFSET 0.33056 -0.0334888 -0.0738803
							CHANNELS 9 Xposition Yposition Zposition Zrotation Xrotation Yrotation Xscale Yscale Zscale
							JOINT LeftHand
							{
								OFFSET 0.0848216 -0.197845 -0.0664274
								CHANNELS 9 Xposition Yposition Zposition Zrotation Xrotation Yrotation Xscale Yscale Zscale
								JOINT LTumb1
								{
									OFFSET 0.0675511 -0.0224315 -0.0232204
									CHANNELS 9 Xposition Yposition Zposition Zrotation Xrotation Yrotation Xscale Yscale Zscale
									JOINT LTumb2
									{
										OFFSET 0.0366449 -0.0138985 -0.00633952
										CHANNELS 9 Xposition Yposition Zposition Zrotation Xrotation Yrotation Xscale Yscale Zscale
										End Site
										{
											OFFSET 0 0 0
										}
									}
								}
								JOINT LForeFinger1
								{
									OFFSET 0.0784209 -0.0843814 -0.0347615
									CHANNELS 9 Xposition Yposition Zposition Zrotation Xrotation Yrotation Xscale Yscale Zscale
									JOINT LForeFinger2
									{
										OFFSET 0.0188054 -0.0238559 -0.00419301
										CHANNELS 9 Xposition Yposition Zposition Zrotation Xrotation Yrotation Xscale Yscale Zscale
										JOINT LForeFinger3
										{
											OFFSET 0.0146422 -0.0194241 -0.00404462
											CHANNELS 9 Xposition Yposition Zposition Zrotation Xrotation Yrotation Xscale Yscale Zscale
											End Site
											{
												OFFSET 0 0 0
											}
										}
									}
								}
								JOINT LMiddleFinger1
								{
									OFFSET 0.0530897 -0.10158 -0.0364084
									CHANNELS 9 Xposition Yposition Zposition Zrotation Xrotation Yrotation Xscale Yscale Zscale
									JOINT LMiddleFinger2
									{
										OFFSET 0.0183426 -0.0266653 -0.0054746
										CHANNELS 9 Xposition Yposition Zposition Zrotation Xrotation Yrotation Xscale Yscale Zscale
										JOINT LMiddleFinger3
										{
											OFFSET 0.0145626 -0.0234583 -0.00728089
											CHANNELS 9 Xposition Yposition Zposition Zrotation Xrotation Yrotation Xscale Yscale Zscale
											End Site
											{
												OFFSET 0 0 0
											}
										}
									}
								}
								JOINT LRingFinger1
								{
									OFFSET 0.0266498 -0.114598 -0.0340007
									CHANNELS 9 Xposition Yposition Zposition Zrotation Xrotation Yrotation Xscale Yscale Zscale
									JOINT LRingFinger2
									{
										OFFSET 0.00975519 -0.0267833 -0.00396106
										CHANNELS 9 Xposition Yposition Zposition Zrotation Xrotation Yrotation Xscale Yscale Zscale
										JOINT LRingFinger3
										{
											OFFSET 0.00826085 -0.0231808 -0.00527376
											CHANNELS 9 Xposition Yposition Zposition Zrotation Xrotation Yrotation Xscale Yscale Zscale
											End Site
											{
												OFFSET 0 0 0
											}
										}
									}
								}
								JOINT LLittleFinger1
								{
									OFFSET -0.00528204 -0.117264 -0.0312425
									CHANNELS 9 Xposition Yposition Zposition Zrotation Xrotation Yrotation Xscale Yscale Zscale
									JOINT LLittleFinger2
									{
										OFFSET 0.00271308 -0.0170652 0.00299892
										CHANNELS 9 Xposition Yposition Zposition Zrotation Xrotation Yrotation Xscale Yscale Zscale
										JOINT LLittleFinger3
										{
											OFFSET 0.00267184 -0.0234923 -0.00207704
											CHANNELS 9 Xposition Yposition Zposition Zrotation Xrotation Yrotation Xscale Yscale Zscale
											End Site
											{
												OFFSET 0 0 0
											}
										}
									}
								}
							}
						}
					}
					JOINT RightUpperArm
					{
						OFFSET -0.126577 -0.184671 -0.045
						CHANNELS 9 Xposition Yposition Zposition Zrotation Xrotation Yrotation Xscale Yscale Zscale
						JOINT RightLowerArm
						{
							OFFSET 0.269815 -0.0192524 0.20659
							CHANNELS 9 Xposition Yposition Zposition Zrotation Xrotation Yrotation Xscale Yscale Zscale
							JOINT RightHand
							{
								OFFSET -0.121469 -0.0040591 0.189681
								CHANNELS 9 Xposition Yposition Zposition Zrotation Xrotation Yrotation Xscale Yscale Zscale
								JOINT RTumb1
								{
									OFFSET -0.0271664 -0.0548101 0.0431677
									CHANNELS 9 Xposition Yposition Zposition Zrotation Xrotation Yrotation Xscale Yscale Zscale
									JOINT RTumb2
									{
										OFFSET -0.0198648 -0.0281125 0.019781
										CHANNELS 9 Xposition Yposition Zposition Zrotation Xrotation Yrotation Xscale Yscale Zscale
										End Site
										{
											OFFSET 0 0 0
										}
									}
								}
								JOINT RForeFinger1
								{
									OFFSET -0.0647718 -0.040637 0.0929068
									CHANNELS 9 Xposition Yposition Zposition Zrotation Xrotation Yrotation Xscale Yscale Zscale
									JOINT RForeFinger2
									{
										OFFSET -0.0205494 -0.00764802 0.0214373
										CHANNELS 9 Xposition Yposition Zposition Zrotation Xrotation Yrotation Xscale Yscale Zscale
										JOINT RForeFinger3
										{
											OFFSET -0.0160587 -0.00571647 0.0178182
											CHANNELS 9 Xposition Yposition Zposition Zrotation Xrotation Yrotation Xscale Yscale Zscale
											End Site
											{
												OFFSET 0 0 0
											}
										}
									}
								}
								JOINT RMiddleFinger1
								{
									OFFSET -0.0647509 -0.0109917 0.100743
									CHANNELS 9 Xposition Yposition Zposition Zrotation Xrotation Yrotation Xscale Yscale Zscale
									JOINT RMiddleFinger2
									{
										OFFSET -0.0213846 -0.00625579 0.0241046
										CHANNELS 9 Xposition Yposition Zposition Zrotation Xrotation Yrotation Xscale Yscale Zscale
										JOINT RMiddleFinger3
										{
											OFFSET -0.0166031 -0.00444521 0.0228025
											CHANNELS 9 Xposition Yposition Zposition Zrotation Xrotation Yrotation Xscale Yscale Zscale
											End Site
											{
												OFFSET 0 0 0
											}
										}
									}
								}
								JOINT RRingFinger1
								{
									OFFSET -0.0641316 0.0185061 0.102682
									CHANNELS 9 Xposition Yposition Zposition Zrotation Xrotation Yrotation Xscale Yscale Zscale
									JOINT RRingFinger2
									{
										OFFSET -0.0189581 0.00173159 0.0215822
										CHANNELS 9 Xposition Yposition Zposition Zrotation Xrotation Yrotation Xscale Yscale Zscale
										JOINT RRingFinger3
										{
											OFFSET -0.0151563 0.0013964 0.0200436
											CHANNELS 9 Xposition Yposition Zposition Zrotation Xrotation Yrotation Xscale Yscale Zscale
											End Site
											{
												OFFSET 0 0 0
											}
										}
									}
								}
								JOINT RLittleFinger1
								{
									OFFSET -0.0547365 0.0487128 0.096881
									CHANNELS 9 Xposition Yposition Zposition Zrotation Xrotation Yrotation Xscale Yscale Zscale
									JOINT RLittleFinger2
									{
										OFFSET -0.0141898 0.00505111 0.00898385
										CHANNELS 9 Xposition Yposition Zposition Zrotation Xrotation Yrotation Xscale Yscale Zscale
										JOINT RLittleFinger3
										{
											OFFSET -0.0151428 0.00701105 0.0168785
											CHANNELS 9 Xposition Yposition Zposition Zrotation Xrotation Yrotation Xscale Yscale Zscale
											End Site
											{
												OFFSET 0 0 0
											}
										}
									}
								}
							}
						}
					}
				}
			}
		}
	}
}
MOTION
Frames: 4
Frame Time: 0.050000
0 0 0 0 0 0 1 1 1 -3.07069e-008 0.151002 0 -90 0 0 1 1 1 -0.607099 0.317995 0.617325 15.5794 -12.7 -38.2556 1 1 1 -0.207995 0.186567 0.645325 10.8001 -3.96771 26.3014 1 1 1 0.0777895 0.140171 0.299453 -8.90647e-006 -1.4359e-005 -25 1 1 1 0.183499 0.0813216 0.24958 0.0647468 8.99489 -19.9784 1 1 1 -0.607099 0.117995 0.617325 -2.91188e-019 0 0 1 1 1 -0.187113 0.0949949 0.645325 4.89122 -1.03833 -101.956 1 1 1 -0.308062 0.0700902 0.2115 -0.867166 -0.0755694 9.96156 1 1 1 -0.221432 0.0615417 0.11379 -3.83006 -1.77726 34.7734 1 1 0.999999 -0.747099 0.217995 0.617325 -3.00077e-006 7.24451e-006 45 1 1 1 -0.887099 0.217995 0.617325 5.00001 0 0 1 1 1 -1.06641 0.233683 0.617325 -1.70403e-007 0 0 1 1 1 -1.27561 0.251986 0.590325 -48.2189 -5.71616 34.589 1 1 1 -1.159 0.437528 0.572325 12.7796 -17.5686 -57.4202 1 1 1 -0.82844 0.40404 0.498445 42.7748 -1.30512 1.45235 1 1 1 -0.743618 0.206194 0.432017 103.359 13.5339 -116.483 1 1 0.999999 -0.676067 0.183763 0.408797 -18.5229 -3.69426 3.37449 1 1 1 -0.639422 0.169865 0.402457 -7.67283e-007 2.13963e-007 -1.82714e-007 1 1 1 -0.665197 0.121813 0.397256 -9.28399 -1.71055 1.8361 1 1 1 -0.646392 0.0979572 0.393063 -7.67283e-007 2.13963e-007 -1.82714e-007 1 1 1 -0.631749 0.0785331 0.389018 -0.24522 -7.86716 -5.59196 1 1 1 -0.690528 0.104614 0.395609 -5.92284 -6.74381 -1.81742 1 1 1 -0.672186 0.077949 0.390134 0.00263264 -8.31391 -4.88913 1 1 1 -0.657623 0.0544907 0.382853 -1.1548 -19.3396 -11.6951 1 1 1 -0.716968 0.0915968 0.398017 0.405041 -6.0008 -2.24991 1 1 1 -0.707213 0.0648135 0.394055 0.405041 -6.0008 -2.24991 1 1 1 -0.698952 0.0416327 0.388782 0.231757 -2.99842 -1.12872 1 1 1 -0.7489 0.08893 0.400775 9.63037 -1.77878 -2.56991 1 1 1 -0.746187 0.0718648 0.403774 0.449393 -3.16491 -0.323945 1 1 1 -0.743515 0.0483726 0.401697 -7.67283e-007 2.13963e-007 -1.82714e-007 1 1 1 -1.19299 0.0490123 0.572325 -11.9791 8.46176 -7.31076 1 1 1 -0.923176 0.02976 0.778915 9.25127 -2.76517 90.9988 1 1 1 -1.04464 0.0257009 0.968596 -116.93 32.5507 138.069 1 0.999999 1 -1.07181 -0.0291092 1.01176 -11.128 -15.7771 -0.00909375 1 1 1 -1.09168 -0.0572217 1.03154 1.34989e-008 7.14687e-008 -1.24541e-006 1 1 1 -1.10942 -0.0149361 1.0615 -5.51049 -7.88859 0.383107 1 1 1 -1.12997 -0.0225841 1.08294 1.34989e-008 7.14687e-008 -1.24541e-006 1 1 1 -1.14602 -0.0283006 1.10076 -0.688902 0.203545 -3.13181 1 1 1 -1.1094 0.0147091 1.06934 -4.06287 -5.28017 -2.88923 1 1 1 -1.13078 0.00845335 1.09344 1.34989e-008 7.14687e-008 -1.24541e-006 1 1 1 -1.14738 0.00400814 1.11625 -0.469375 0.0356827 -3.17949 1 1 1 -1.10878 0.0442069 1.07128 1.34989e-008 7.14687e-008 -1.24541e-006 1 1 1 -1.12773 0.0459385 1.09286 1.34989e-008 7.14687e-008 -1.24541e-006 1 1 1 -1.14289 0.0473349 1.1129 1.34989e-008 7.14687e-008 -1.24541e-006 1 1 1 -1.09938 0.0744136 1.06548 1.34989e-008 7.14687e-008 -1.24541e-006 1 1 1 -1.11357 0.0794648 1.07446 1.34989e-008 7.14687e-008 -1.24541e-006 1 1 1 -1.12871 0.0864758 1.09134 1.34989e-008 7.14687e-008 -1.24541e-006 1 1 1 
0 0 0 0 0 0 1 1 1 -2.42696e-008 0.187002 0 -90 0 0 1 1 1 -0.607099 0.317995 0.617325 13.6875 -14.7244 -46.2232 1 1 1 -0.207995 0.186567 0.645325 10.8774 3.23544 38.3144 1 1 1 0.0777895 0.140171 0.299453 -0.283404 -0.430602 -25.858 1 1 1 0.183499 0.0813216 0.24958 0.300341 6.17017 -24.7234 1 1 1 -0.607099 0.117995 0.617325 -2.91188e-019 0 0 1 1 1 -0.187113 0.0949949 0.645325 4.89122 -1.03833 -101.956 1 1 1 -0.308062 0.0700902 0.2115 -0.867166 -0.0755694 9.96156 1 1 1 -0.221432 0.0615417 0.11379 -3.83006 -1.77726 34.7734 1 1 0.999999 -0.747099 0.217995 0.617325 -4.22326e-006 8.28861e-006 54 1 1 1 -0.887099 0.217995 0.617325 5.00001 0 0 1 1 1 -1.06641 0.233683 0.617325 -1.70403e-007 0 0 1 1 1 -1.27561 0.251986 0.590325 -48.2189 -5.71616 34.589 1 1 1 -1.159 0.437528 0.572325 9.82674 -20.1007 -66.5473 1 1 1 -0.82844 0.40404 0.498445 43.2555 -1.21251 1.36073 1 1 1 -0.743618 0.206194 0.432017 103.359 13.5339 -116.483 1 1 0.999999 -0.676067 0.183763 0.408797 -19.2059 -3.85066 3.47552 1 1 1 -0.639422 0.169865 0.402457 -7.67283e-007 2.13963e-007 -1.82714e-007 1 1 1 -0.665197 0.121813 0.397256 -9.6269 -1.77946 1.89864 1 1 1 -0.646392 0.0979572 0.393063 -7.67283e-007 2.13963e-007 -1.82714e-007 1 1 1 -0.631749 0.0785331 0.389018 -0.269265 -8.15782 -5.80147 1 1 1 -0.690528 0.104614 0.395609 -6.14768 -6.9897 -1.89856 1 1 1 -0.672186 0.077949 0.390134 -0.0110491 -8.62163 -5.07191 1 1 1 -0.657623 0.0544907 0.382853 -1.28032 -20.0485 -12.1592 1 1 1 -0.716968 0.0915968 0.398017 0.415563 -6.22333 -2.33283 1 1 1 -0.707213 0.0648135 0.394055 0.415563 -6.22333 -2.33283 1 1 1 -0.698952 0.0416327 0.388782 0.239215 -3.10955 -1.17034 1 1 1 -0.7489 0.08893 0.400775 9.98561 -1.85277 -2.65914 1 1 1 -0.746187 0.0718648 0.403774 0.465715 -3.28218 -0.335481 1 1 1 -0.743515 0.0483726 0.401697 -7.67283e-007 2.13963e-007 -1.82714e-007 1 1 1 -1.19299 0.0490123 0.572325 -10.6491 9.39834 -15.8629 1 1 1 -0.923176 0.02976 0.778915 9.45791 -2.90487 91.0288 1 1 1 -1.04464 0.0257009 0.968596 -116.93 32.5507 138.069 1 0.999999 1 -1.07181 -0.0291092 1.01176 -11.5546 -16.3594 -0.0707521 1 1 1 -1.09168 -0.0572217 1.03154 1.34989e-008 7.14687e-008 -1.24541e-006 1 1 1 -1.10942 -0.0149361 1.0615 -5.7153 -8.18121 0.382688 1 1 1 -1.12997 -0.0225841 1.08294 1.34989e-008 7.14687e-008 -1.24541e-006 1 1 1 -1.14602 -0.0283006 1.10076 -0.714197 0.211805 -3.24776 1 1 1 -1.1094 0.0147091 1.06934 -4.21902 -5.47166 -3.00382 1 1 1 -1.13078 0.00845335 1.09344 1.34989e-008 7.14687e-008 -1.24541e-006 1 1 1 -1.14738 0.00400814 1.11625 -0.486716 0.0375042 -3.29724 1 1 1 -1.10878 0.0442069 1.07128 1.34989e-008 7.14687e-008 -1.24541e-006 1 1 1 -1.12773 0.0459385 1.09286 1.34989e-008 7.14687e-008 -1.24541e-006 1 1 1 -1.14289 0.0473349 1.1129 1.34989e-008 7.14687e-008 -1.24541e-006 1 1 1 -1.09938 0.0744136 1.06548 1.34989e-008 7.14687e-008 -1.24541e-006 1 1 1 -1.11357 0.0794648 1.07446 1.34989e-008 7.14687e-008 -1.24541e-006 1 1 1 -1.12871 0.0864758 1.09134 1.34989e-008 7.14687e-008 -1.24541e-006 1 1 1 
0 0 0 0 0 0 1 1 1 -1.33314e-008 0.248173 0 -90 0 0 1 1 1 -0.607099 0.317995 0.617325 11.5042 -16.472 -54.3293 1 1 1 -0.207995 0.186567 0.645325 9.43409 10.2952 50.4972 1 1 1 0.0777895 0.140171 0.299453 -0.573242 -0.85689 -26.7181 1 1 1 0.183499 0.0813216 0.24958 0.300203 3.33581 -29.4373 1 1 1 -0.607099 0.117995 0.617325 -2.91188e-019 0 0 1 1 1 -0.187113 0.0949949 0.645325 4.89122 -1.03833 -101.956 1 1 1 -0.308062 0.0700902 0.2115 -0.867166 -0.0755694 9.96156 1 1 1 -0.221432 0.0615417 0.11379 -3.83006 -1.77726 34.7734 1 1 0.999999 -0.747099 0.217995 0.617325 -5.59402e-006 9.12862e-006 63 1 1 1 -0.887099 0.217995 0.617325 5.00001 0 0 1 1 1 -1.06641 0.233683 0.617325 -1.70403e-007 0 0 1 1 1 -1.27561 0.251986 0.590325 -48.2189 -5.71616 34.589 1 1 1 -1.159 0.437528 0.572325 6.43278 -22.15 -75.9443 1 1 1 -0.82844 0.40404 0.498445 43.7364 -1.12068 1.26835 1 1 1 -0.743618 0.206194 0.432017 103.359 13.5339 -116.483 1 1 0.999999 -0.676067 0.183763 0.408797 -19.8887 -4.00825 3.57469 1 1 1 -0.639422 0.169865 0.402457 -7.67283e-007 2.13963e-007 -1.82714e-007 1 1 1 -0.665197 0.121813 0.397256 -9.96974 -1.84873 1.96077 1 1 1 -0.646392 0.0979572 0.393063 -7.67283e-007 2.13963e-007 -1.82714e-007 1 1 1 -0.631749 0.0785331 0.389018 -0.294402 -8.44839 -6.01126 1 1 1 -0.690528 0.104614 0.395609 -6.37298 -7.23527 -1.98073 1 1 1 -0.672186 0.077949 0.390134 -0.025734 -8.9293 -5.25492 1 1 1 -0.657623 0.0544907 0.382853 -1.41256 -20.7565 -12.6271 1 1 1 -0.716968 0.0915968 0.398017 0.425765 -6.44586 -2.41574 1 1 1 -0.707213 0.0648135 0.394055 0.425765 -6.44586 -2.41574 1 1 1 -0.698952 0.0416327 0.388782 0.246593 -3.22069 -1.21195 1 1 1 -0.7489 0.08893 0.400775 10.3408 -1.92731 -2.74791 1 1 1 -0.746187 0.0718648 0.403774 0.482016 -3.39945 -0.346986 1 1 1 -0.743515 0.0483726 0.401697 -7.67283e-007 2.13963e-007 -1.82714e-007 1 1 1 -1.19299 0.0490123 0.572325 -9.18913 10.1286 -24.4563 1 1 1 -0.923176 0.02976 0.778915 9.66465 -3.04445 91.0592 1 1 1 -1.04464 0.0257009 0.968596 -116.93 32.5507 138.069 1 0.999999 1 -1.07181 -0.0291092 1.01176 -11.9831 -16.9411 -0.137123 1 1 1 -1.09168 -0.0572217 1.03154 1.34989e-008 7.14687e-008 -1.24541e-006 1 1 1 -1.10942 -0.0149361 1.0615 -5.92026 -8.47383 0.381206 1 1 1 -1.12997 -0.0225841 1.08294 1.34989e-008 7.14687e-008 -1.24541e-006 1 1 1 -1.14602 -0.0283006 1.10076 -0.739474 0.220115 -3.3637 1 1 1 -1.1094 0.0147091 1.06934 -4.37559 -5.66284 -3.11896 1 1 1 -1.13078 0.00845335 1.09344 1.34989e-008 7.14687e-008 -1.24541e-006 1 1 1 -1.14738 0.00400814 1.11625 -0.504054 0.0393612 -3.41499 1 1 1 -1.10878 0.0442069 1.07128 1.34989e-008 7.14687e-008 -1.24541e-006 1 1 1 -1.12773 0.0459385 1.09286 1.34989e-008 7.14687e-008 -1.24541e-006 1 1 1 -1.14289 0.0473349 1.1129 1.34989e-008 7.14687e-008 -1.24541e-006 1 1 1 -1.09938 0.0744136 1.06548 1.34989e-008 7.14687e-008 -1.24541e-006 1 1 1 -1.11357 0.0794648 1.07446 1.34989e-008 7.14687e-008 -1.24541e-006 1 1 1 -1.12871 0.0864758 1.09134 1.34989e-008 7.14687e-008 -1.24541e-006 1 1 1 
0 0 0 0 0 0 1 1 1 -2.39326e-009 0.309343 0 -90 0 0 1 1 1 -0.607099 0.317995 0.617325 9.06534 -17.903 -62.5692 1 1 1 -0.207995 0.186567 0.645325 6.42912 16.8808 63.217 1 1 1 0.0777895 0.140171 0.299453 -0.869485 -1.27878 -27.5806 1 1 1 0.183499 0.0813216 0.24958 0.0672227 0.511035 -34.1434 1 1 1 -0.607099 0.117995 0.617325 -2.91188e-019 0 0 1 1 1 -0.187113 0.0949949 0.645325 4.89122 -1.03833 -101.956 1 1 1 -0.308062 0.0700902 0.2115 -0.867166 -0.0755694 9.96156 1 1 1 -0.221432 0.0615417 0.11379 -3.83006 -1.77726 34.7734 1 1 0.999999 -0.747099 0.217995 0.617325 -7.07932e-006 9.74385e-006 72 1 1 1 -0.887099 0.217995 0.617325 5.00001 0 0 1 1 1 -1.06641 0.233683 0.617325 -1.70403e-007 0 0 1 1 1 -1.27561 0.251986 0.590325 -48.2189 -5.71616 34.589 1 1 1 -1.159 0.437528 0.572325 2.67558 -23.6476 -85.5802 1 1 1 -0.82844 0.40404 0.498445 44.2174 -1.02962 1.17519 1 1 1 -0.743618 0.206194 0.432017 103.359 13.5339 -116.483 1 1 0.999999 -0.676067 0.183763 0.408797 -20.5714 -4.16701 3.67199 1 1 1 -0.639422 0.169865 0.402457 -7.67283e-007 2.13963e-007 -1.82714e-007 1 1 1 -0.665197 0.121813 0.397256 -10.3125 -1.91838 2.02248 1 1 1 -0.646392 0.0979572 0.393063 -7.67283e-007 2.13963e-007 -1.82714e-007 1 1 1 -0.631749 0.0785331 0.389018 -0.320639 -8.73886 -6.22134 1 1 1 -0.690528 0.104614 0.395609 -6.59877 -7.48052 -2.06391 1 1 1 -0.672186 0.077949 0.390134 -0.0414302 -9.23693 -5.43817 1 1 1 -0.657623 0.0544907 0.382853 -1.55164 -21.4634 -13.0989 1 1 1 -0.716968 0.0915968 0.398017 0.435646 -6.66842 -2.49865 1 1 1 -0.707213 0.0648135 0.394055 0.435646 -6.66842 -2.49865 1 1 1 -0.698952 0.0416327 0.388782 0.253891 -3.33184 -1.25356 1 1 1 -0.7489 0.08893 0.400775 10.6958 -2.00241 -2.83623 1 1 1 -0.746187 0.0718648 0.403774 0.498296 -3.51672 -0.358459 1 1 1 -0.743515 0.0483726 0.401697 -7.67283e-007 2.13963e-007 -1.82714e-007 1 1 1 -1.19299 0.0490123 0.572325 -7.63172 10.6352 -33.0827 1 1 1 -0.923176 0.02976 0.778915 9.87149 -3.18392 91.0902 1 1 1 -1.04464 0.0257009 0.968596 -116.93 32.5507 138.069 1 0.999999 1 -1.07181 -0.0291092 1.01176 -12.4137 -17.5224 -0.208266 1 1 1 -1.09168 -0.0572217 1.03154 1.34989e-008 7.14687e-008 -1.24541e-006 1 1 1 -1.10942 -0.0149361 1.0615 -6.12538 -8.76645 0.378667 1 1 1 -1.12997 -0.0225841 1.08294 1.34989e-008 7.14687e-008 -1.24541e-006 1 1 1 -1.14602 -0.0283006 1.10076 -0.764735 0.228478 -3.47964 1 1 1 -1.1094 0.0147091 1.06934 -4.53261 -5.8537 -3.23467 1 1 1 -1.13078 0.00845335 1.09344 1.34989e-008 7.14687e-008 -1.24541e-006 1 1 1 -1.14738 0.00400814 1.11625 -0.521387 0.0412539 -3.53274 1 1 1 -1.10878 0.0442069 1.07128 1.34989e-008 7.14687e-008 -1.24541e-006 1 1 1 -1.12773 0.0459385 1.09286 1.34989e-008 7.14687e-008 -1.24541e-006 1 1 1 -1.14289 0.0473349 1.1129 1.34989e-008 7.14687e-008 -1.24541e-006 1 1 1 -1.09938 0.0744136 1.06548 1.34989e-008 7.14687e-008 -1.24541e-006 1 1 1 -1.11357 0.0794648 1.07446 1.34989e-008 7.14687e-008 -1.24541e-006 1 1 1 -1.12871 0.0864758 1.09134 1.34989e-008 7.14687e-008 -1.24541e-006 1 1 1 
